<svg width="402.667" height="302.6" xmlns="http://www.w3.org/2000/svg">

 <g>
  <title>background</title>
  <rect fill="none" id="canvas_background" height="304.6" width="404.667" y="-1" x="-1"/>
 </g>
 <g>
  <title>Layer 1</title>
  <path id="svg_1" d="m202.490906,260.437012c-0.074005,-0.145996 -0.190994,-0.382996 -0.311005,-0.606995c0.154999,0.29599 0.251999,0.490967 0.311005,0.606995z"/>
  <path id="svg_2" d="m202.301193,260.065002c0.100006,0.199005 0.082001,0.15802 0,0l0,0z"/>
  <path id="svg_3" d="m383.742004,243.364014c1.411987,0.006989 2.824005,0.010986 4.264008,0.010986c4.552979,0 7.450989,-5.069 5.208984,-8.994995l-10.363007,-17.997986c1.107025,-0.004028 2.213013,-0.012024 3.332001,-0.012024c4.361023,0 7.350006,-4.746002 5.389008,-8.667999l-32.266998,-85.481995c-1.007996,-2.014008 -3.118988,-3.332001 -5.372986,-3.332001c-41.311005,0 -80.219025,7.690002 -109.562012,21.658005c-19.975006,9.508987 -34.112991,31.283005 -41.578003,44.309998c-7.463989,-13.026993 -21.602997,-34.800003 -41.574997,-44.309998c-29.339996,-13.968002 -68.246002,-21.659012 -109.553001,-21.659012c-2.229,0 -4.382999,1.307007 -5.367001,3.315002l-32.492,85.482025c-1.983,3.92099 1.019,8.685974 5.382001,8.685974c1.724998,0 3.434999,0.006012 5.135,0.018005l-10.358,17.98999c-2.178,3.939026 0.605,8.994995 5.209,8.994995c1.438,0 2.85,-0.003967 4.261,-0.009979l-10.622999,20.962982c-2.139,4.278015 1.517,9.319031 6.285999,8.642029l148.797003,-13.440002c3.162994,14.514984 16.437988,13.846985 35.019989,13.846985c18.583008,0 31.856003,0.667999 35.020004,-13.846985l148.807007,13.440002c6.471008,1.018982 8.25,-7.40802 7.625,-8.642029l-10.625,-20.961975zm-347.820004,-38.817993c-0.75,-0.15802 -1.514,-0.171021 -2.253002,-0.04303c-1.598999,-0.028992 -3.204998,-0.054993 -4.820997,-0.073975l26.501997,-73.499023c38.168999,0.438004 73.812996,7.645996 100.709999,20.450012c24.904007,11.854996 39.222992,36.947998 40.716003,52.760986l0.037994,44.696014c-26.46199,-19.518005 -86.746994,-42.706024 -160.891994,-44.290985zm337.380001,-0.070007c-0.600006,-0.083008 -1.213013,-0.071014 -1.820007,0.029968c-79.84201,1.492004 -138.123001,22.197998 -162.567993,44.090027l-0.103989,-44.455017c1.494003,-15.812988 15.813995,-40.905991 40.720993,-52.760986c26.894989,-12.802002 62.536987,-20.012009 100.703003,-20.451019l26.31601,73.498993c-1.088013,0.014038 -2.16803,0.031006 -3.248016,0.048035z"/>
  <path id="svg_4" d="m202.284393,260.035004c0.037003,0.071991 0.063995,0.128998 0.102005,0.194c-0.061005,-0.115997 -0.102005,-0.194 -0.102005,-0.194z"/>
  <line id="svg_5" y2="118.887" x2="355.4194" y1="118.887" x1="51.2514"/>
  <path id="svg_6" d="m268.106415,19.546997c-26.576035,0 -50.726028,16.016998 -64.771027,31.042c-14.05101,-15.025002 -38.20401,-31.042 -64.775009,-31.042c-28.223984,0 -51.185989,22.960999 -51.185989,51.184998c0,28.227005 22.962006,51.190002 51.185989,51.190002c26.546997,0 50.709991,-16.018997 64.774002,-31.042c14.061005,15.024002 38.220001,31.042 64.772034,31.042c28.22699,0 51.190002,-22.964005 51.190002,-51.190002c0.001007,-28.223991 -22.963013,-51.184998 -51.190002,-51.184998zm0,77.809006c-24.741028,0 -43.593033,-19.346008 -49.783035,-26.589005c9.225006,-10.904999 28.178009,-26.654999 49.783035,-26.654999c14.681,0 26.623993,11.941002 26.623993,26.619003c0,14.681992 -11.942993,26.625 -26.623993,26.625zm-129.546036,0c-14.677986,0 -26.61898,-11.944 -26.61898,-26.625c0,-14.678001 11.940994,-26.619003 26.61898,-26.619003c24.729004,0 43.589005,19.345001 49.781998,26.585999c-9.218994,10.906998 -28.165985,26.658005 -49.781998,26.658005z"/>
 </g>
</svg>