<?xml version="1.0" encoding="iso-8859-1"?>
<!-- Generator: Adobe Illustrator 19.0.0, SVG Export Plug-In . SVG Version: 6.00 Build 0)  -->
<svg version="1.1" id="Layer_1" xmlns="http://www.w3.org/2000/svg" xmlns:xlink="http://www.w3.org/1999/xlink" x="0px" y="0px"
	 viewBox="0 0 501.333 501.333" style="enable-background:new 0 0 501.333 501.333;" xml:space="preserve">
<g>
	<g>
		<path d="M250.667,0C112,0,0,112,0,250.667s112,250.667,250.667,250.667s250.667-112,250.667-250.667S389.333,0,250.667,0z
			 M250.667,459.733c-115.2,0-209.067-93.867-209.067-209.067S135.467,41.6,250.667,41.6s209.067,93.867,209.067,209.067
			S365.867,459.733,250.667,459.733z"/>
	</g>
</g>
<g>
	<g>
		<path d="M251.733,192C240,192,230.4,201.6,230.4,213.333v172.8c0,11.733,9.6,21.333,21.333,21.333
			c11.733,0,21.333-9.6,21.333-20.267V213.334C273.067,201.6,263.467,192,251.733,192z"/>
	</g>
</g>
<g>
	<g>
		<path d="M249.6,92.8c-11.733,0-21.333,9.6-21.333,21.333V134.4c0,11.733,9.6,21.333,21.333,21.333
			c11.733,0,20.267-9.6,21.333-21.333v-20.267C270.933,102.4,261.333,92.8,249.6,92.8z"/>
	</g>
</g>
<g>
</g>
<g>
</g>
<g>
</g>
<g>
</g>
<g>
</g>
<g>
</g>
<g>
</g>
<g>
</g>
<g>
</g>
<g>
</g>
<g>
</g>
<g>
</g>
<g>
</g>
<g>
</g>
<g>
</g>
</svg>
